Coordinates
version=1
nRows=14
nColumns=36
inDegrees=yes

Units are S.I. units (second, meters, Newtons, ...)
If the header above contains a line with 'inDegrees', this indicates whether rotational values are in degrees (yes) or radians (no).

endheader
time	pelvis_tilt	pelvis_list	pelvis_rotation	pelvis_tx	pelvis_ty	pelvis_tz	hip_flexion_r	hip_adduction_r	hip_rotation_r	knee_angle_r	knee_angle_r_beta	ankle_angle_r	subtalar_angle_r	mtp_angle_r	hip_flexion_l	hip_adduction_l	hip_rotation_l	knee_angle_l	knee_angle_l_beta	ankle_angle_l	subtalar_angle_l	mtp_angle_l	lumbar_extension	lumbar_bending	lumbar_rotation	arm_flex_r	arm_add_r	arm_rot_r	elbow_flex_r	pro_sup_r	arm_flex_l	arm_add_l	arm_rot_l	elbow_flex_l	pro_sup_l
      9.30000000	      3.30608629	      0.77459780	     -1.49952789	     -0.10662512	      0.92219187	     -0.58468995	      1.81552295	     -2.04674249	      2.42090583	     16.76284109	      0.29256677	     12.08985558	     -2.89595839	     -7.49999987	      0.48032584	     -2.47722477	     -2.20731986	     12.87694843	      0.22474515	     10.83441357	     -2.71970281	     -7.49999987	     -8.93903292	      1.03073561	     -3.58275740	     18.15905509	    -23.40662719	     -3.25500047	     89.17147797	     97.19407348	     11.25205774	    -19.50860944	     -9.98248212	     83.75808540	     90.53217841
      9.31000000	      3.21782724	      0.79068400	     -1.56561337	     -0.10711431	      0.92210875	     -0.58475844	      2.00839430	     -2.06961871	      2.50811220	     16.85672343	      0.29420532	     12.12501181	     -2.83646158	     -7.49999987	      0.58629641	     -2.44097069	     -2.13952635	     12.84946133	      0.22426541	     10.79487009	     -2.76457428	     -7.49999987	     -8.94759997	      1.10532380	     -3.62371766	     18.24271676	    -23.29188972	     -3.22639022	     89.14133450	     96.97053503	     11.28930325	    -19.52928039	     -9.94841689	     83.72151219	     90.02580312
      9.32000000	      3.09023734	      0.79261981	     -1.61572893	     -0.10774169	      0.92195055	     -0.58484228	      2.26158910	     -2.07558207	      2.56193811	     16.96119231	      0.29602865	     12.13242216	     -2.80908314	     -7.49999987	      0.76492726	     -2.42302170	     -2.08500986	     12.84510053	      0.22418930	     10.75430037	     -2.84543943	     -7.49999987	     -8.94269041	      1.18555251	     -3.63847748	     18.30822620	    -23.17925743	     -3.25797002	     89.13085191	     96.66386001	     11.37029797	    -19.53984280	     -9.92340456	     83.68937769	     89.45475954
      9.33000000	      3.05750745	      0.77446294	     -1.62678614	     -0.10851736	      0.92193423	     -0.58509606	      2.37259893	     -2.05924896	      2.66967153	     17.00521223	      0.29679694	     12.14148252	     -2.85553826	     -7.49999987	      0.87441778	     -2.41576031	     -1.99628052	     12.88716531	      0.22492347	     10.70083690	     -3.01645029	     -7.49999987	     -9.12577976	      1.28188314	     -3.64853532	     18.39318198	    -23.12333116	     -3.35617324	     89.23607484	     96.64782732	     11.51032703	    -19.53881416	     -9.89395038	     83.78002965	     89.05674889
      9.34000000	      3.01248604	      0.78406165	     -1.63674760	     -0.10931046	      0.92190170	     -0.58539181	      2.49372837	     -2.07874033	      2.76209246	     17.03479642	      0.29731328	     12.13227412	     -2.91308093	     -7.49999987	      0.98356415	     -2.36937084	     -1.91907878	     12.88815102	      0.22494067	     10.63223336	     -3.16188112	     -7.49999987	     -9.28553497	      1.34668934	     -3.66624089	     18.51301798	    -23.09598101	     -3.43020215	     89.24902253	     96.61773482	     11.67980660	    -19.55510504	     -9.84205780	     83.74779945	     88.65261633
      9.35000000	      2.95440923	      0.77583969	     -1.66151681	     -0.11006808	      0.92183877	     -0.58560844	      2.61491179	     -2.08255434	      2.79745181	     17.03298633	      0.29728169	     12.15026688	     -2.87870664	     -7.49999987	      1.10038861	     -2.35328643	     -1.86978275	     12.89542656	      0.22506765	     10.63957663	     -3.22253885	     -7.49999987	     -9.44817785	      1.42900264	     -3.67552910	     18.62832105	    -23.10555045	     -3.43008481	     89.34223129	     96.11663674	     11.83826324	    -19.58449326	     -9.79995148	     83.78048011	     88.05004230
      9.36000000	      2.90282249	      0.76121922	     -1.67788079	     -0.11089950	      0.92179951	     -0.58577550	      2.72253505	     -2.07827096	      2.80032091	     17.01074214	      0.29689346	     12.12946757	     -2.83766943	     -7.49999987	      1.22643774	     -2.35816071	     -1.86721369	     12.91096325	      0.22533882	     10.59838996	     -3.27036831	     -7.49999987	     -9.64927248	      1.51490466	     -3.68831177	     18.75164577	    -23.13303401	     -3.38000167	     89.45604487	     95.64955557	     12.03832066	    -19.61694021	     -9.75544951	     83.82007464	     87.46221200
      9.37000000	      2.83245232	      0.75495768	     -1.68788882	     -0.11186712	      0.92172773	     -0.58593201	      2.86869245	     -2.07714947	      2.80438038	     17.00493292	      0.29679207	     12.13696849	     -2.81784736	     -7.49999987	      1.38835057	     -2.34958903	     -1.80604926	     12.94089322	      0.22586119	     10.57911192	     -3.30600896	     -7.49999987	     -9.85137024	      1.57190457	     -3.70427058	     18.90339630	    -23.15490424	     -3.32025287	     89.52472733	     95.13336632	     12.27819258	    -19.67056332	     -9.69351273	     83.80693535	     86.80467223
      9.38000000	      2.76372780	      0.73391898	     -1.65375662	     -0.11295708	      0.92170099	     -0.58621840	      2.99285978	     -2.05712142	      2.84729120	     16.96598646	      0.29611232	     12.15432162	     -2.78954261	     -7.49999987	      1.60500578	     -2.36568785	     -1.77483448	     13.05436436	      0.22784164	     10.62042059	     -3.24648353	     -7.49999987	    -10.09687741	      1.64825358	     -3.74263895	     19.06874976	    -23.20100692	     -3.25078369	     89.67268760	     94.23612005	     12.52162425	    -19.70719086	     -9.60897251	     83.90382332	     86.06607021
      9.39000000	      2.62144824	      0.71684850	     -1.58320719	     -0.11406188	      0.92161522	     -0.58654713	      3.21476773	     -2.04850009	      2.78780612	     16.94255783	      0.29570342	     11.90530159	     -2.94817303	     -7.49999987	      1.91103486	     -2.37660026	     -1.74547313	     13.14290366	      0.22938694	     10.46818926	     -3.33957428	     -7.49999987	    -10.27896697	      1.73611695	     -3.85697905	     19.24401878	    -23.26583536	     -3.23472809	     89.73104777	     93.80461794	     12.71598612	    -19.84901719	     -9.61047080	     83.88622467	     85.79460483
      9.40000000	      2.53896517	      0.71650712	     -1.58664135	     -0.11522844	      0.92156945	     -0.58671494	      3.37738479	     -2.05679282	      2.80798691	     16.91644076	      0.29524759	     11.93289362	     -2.94249820	     -7.49999987	      2.12974509	     -2.36385007	     -1.63140793	     13.22911818	      0.23089167	     10.44571160	     -3.38295264	     -7.49999987	    -10.52974026	      1.79071295	     -3.85340409	     19.47715542	    -23.25034703	     -3.14668890	     89.80327825	     93.43694873	     13.02114147	    -19.85013678	     -9.55218306	     83.86761888	     85.36925859
      9.41000000	      2.31514818	      0.69747881	     -1.58938564	     -0.11640943	      0.92133198	     -0.58673079	      3.71873707	     -2.01363452	      2.83555558	     16.92134182	      0.29533313	     11.71228050	     -3.18914006	     -7.49999987	      2.53301421	     -2.38709213	     -1.58941726	     13.35983718	      0.23317315	     10.34541345	     -3.56001902	     -7.49999987	    -10.62831233	      1.84001662	     -3.84981333	     19.63285598	    -23.25620011	     -3.30005780	     89.38895509	     98.16512930	     13.30845483	    -19.84838555	     -9.78583935	     83.12538826	     91.07208537
      9.42000000	      2.09357855	      0.68376939	     -1.58059065	     -0.11762153	      0.92106045	     -0.58678544	      4.07571121	     -1.99272597	      2.83064488	     16.96766690	      0.29614165	     11.81897118	     -3.11644661	     -7.49999987	      2.94757288	     -2.41485063	     -1.55680248	     13.52373519	      0.23603371	     10.42339102	     -3.51329853	     -7.49999987	    -10.73919875	      1.87484037	     -3.84872938	     19.79301357	    -23.24850656	     -3.21318533	     89.39371344	     97.06666212	     13.60598944	    -19.92628332	     -9.65590658	     83.10621556	     90.02988166
      9.43000000	      1.92154533	      0.65779058	     -1.57025320	     -0.11888175	      0.92089266	     -0.58696218	      4.38750090	     -1.98438861	      2.74220292	     17.02816679	      0.29719758	     11.94422716	     -2.83515336	     -7.49999987	      3.32910265	     -2.45264626	     -1.55384242	     13.72794178	      0.23959778	     10.61170785	     -3.34001756	     -7.49999987	    -10.94961264	      1.94099090	     -3.83957093	     19.98263844	    -23.27674735	     -3.08503652	     89.61008644	     94.78053980	     13.88905530	    -19.99549539	     -9.49218619	     83.30458161	     88.18915762
